<?xml version="1.0" encoding="UTF-8"?>
<svg id="Layer_2" data-name="Layer 2" xmlns="http://www.w3.org/2000/svg" viewBox="0 0 240.76 189.8">
  <defs>
    <style>
      .cls-1 {
        fill: #4b032a;
        stroke-width: 0px;
      }
    </style>
  </defs>
  <g id="Layer_1-2" data-name="Layer 1">
    <g>
      <path class="cls-1" d="M135.2,44.56c-12.31-8.16-25.88-4.36-38.5.99-12.27,5.2-22.79,13.65-30.86,24.26-16.81,22.11-21.99,55.01-2.26,77.22,18.16,20.44,50.39,25.79,75.96,19.33,26.9-6.8,47.68-27.98,49.04-56.47.8-16.93-5.93-32.21-16.59-45.04-9.57-11.51-24.53-24.16-40.54-22.59-1.82.18-2.51,2.93-.46,3.41,24.93,5.75,47.77,28.75,50.62,54.77,2.78,25.4-12.61,47.88-35.99,56.92-21.69,8.38-47.83,6.52-67.64-5.89-24.04-15.06-27.73-46.09-14.55-69.71,6.28-11.26,15.72-21.83,27.04-28.21,12.06-6.81,30.67-15.11,43.93-7.59.9.51,1.65-.81.8-1.38h0Z"/>
      <path class="cls-1" d="M118.67,40.7c-29.26,26.9-20.81,72.28-13.21,106.41,1.47,6.61,3.34,14.17,10.12,17.24s13.73-2.08,16.46-8.46c3.68-8.61,4.65-19.14,5.89-28.36,1.43-10.68,2.18-21.45,2.19-32.23s-.54-22.5-2.38-33.51c-1.5-8.93-5.4-17.48-14.26-20.95-2.53-.99-3.75,3.22-1.13,4.11,9.25,3.16,11.28,13.29,12.29,21.87s1.42,16.43,1.5,24.67c.16,16.94-1.4,33.88-4.79,50.49-1.31,6.43-4.12,22.8-14.23,17.98-6.89-3.28-7.65-15.02-9.11-21.55-3.67-16.4-6.88-33.21-5.9-50.09.99-17.02,6.73-33.34,17.71-46.5.65-.78-.36-1.83-1.13-1.13h0Z"/>
      <path class="cls-1" d="M57.51,102.2c37.47-21.7,81.83-27.66,123.46-15.07,2.55.77,3.64-3.22,1.1-3.98-41.93-12.58-88.74-6.62-125.91,16.74-1.45.91-.15,3.17,1.35,2.31h0Z"/>
      <path class="cls-1" d="M55.15,131.46c10.34-4.43,19.96-9.91,30.71-13.51,10.58-3.55,21.56-6.14,32.64-7.52,10.35-1.29,20.84-1.61,31.25-1.01,5.77.33,11.52.95,17.23,1.88,4.94.8,10.41,2.96,15.38,2.7,1.29-.07,1.86-1.79.67-2.49-4.29-2.52-10.29-2.77-15.16-3.47-5.45-.78-10.93-1.32-16.43-1.58-11.11-.53-22.25.04-33.27,1.6s-22.21,4.1-32.91,7.74-21.97,7.77-30.87,14.37c-.78.58-.13,1.68.76,1.3h0Z"/>
      <path class="cls-1" d="M74.59,150.17c3.91.48,8.21-1.9,11.95-3,3.95-1.16,7.9-2.31,11.89-3.34,8.59-2.21,17.3-3.9,26.09-5.11s17.65-1.94,26.53-2.18c4.12-.11,8.25-.12,12.37-.02s8.52,1.02,12.47.03c1.26-.31,1-1.89,0-2.31-3.75-1.55-8.46-1.12-12.47-1.23-4.71-.13-9.43-.11-14.15.04-8.52.27-17.02,1-25.47,2.14-8.87,1.2-17.67,2.87-26.35,5.06-4.56,1.15-9.07,2.45-13.51,4.02-3.29,1.16-7.49,2-9.84,4.69-.43.49-.11,1.13.5,1.2h0Z"/>
      <path class="cls-1" d="M112.5,39.2c-.11-5.17,6.93-4.83,10.59-4.72,1.8.05,3.87.18,5.42,1.2,2.54,1.68,1.68,3.47,1.16,5.95-.41,1.96,1.83,4.36,3.79,2.91,3.14-2.33,3.45-6.52,1.58-9.9-2.01-3.65-5.75-5.28-9.73-5.74-6.86-.79-21.01.67-18.06,11.01.82,2.85,5.32,2.36,5.25-.71h0Z"/>
      <path class="cls-1" d="M115.35.78c.1,10.12.41,20.75,2.24,30.72.32,1.74,3.06,1.3,3.04-.41-.11-10.12-1.87-20.58-3.71-30.52-.17-.89-1.57-.67-1.57.21h0Z"/>
      <path class="cls-1" d="M58.49,41.6c2.53,4.62.61,10.27-5.41,9.67-1.12-.11-1.11,1.63,0,1.74,3.87.39,6.4,4.06,5.52,7.8l1.82.5c.78-4.41,4.89-6.89,9.19-4.91l.79-1.87c-2.88-1.15-5.32-3.07-6.98-5.7-1.42-2.25-1.57-4.61-2.52-6.97-.25-.62-1.24-.78-1.42,0-1.52,6.33,5.08,12.61,10.37,14.65,1.07.41,1.85-1.4.79-1.87-5.32-2.38-11.06.24-12.04,6.17-.19,1.17,1.55,1.71,1.82.5,1.11-4.98-2.27-9.58-7.34-10.04v1.74c6.32.56,11.52-7.2,6.07-11.92-.35-.31-.9.08-.66.51h0Z"/>
      <path class="cls-1" d="M174.24,44.75c5.32,1.43,7.81,7.87,2.97,11.58l1.32,1.32c2.94-4.5,8.66-6.27,13.56-3.92l.83-1.97c-5.87-.99-8.65-6.95-5.46-12.09l-1.98-.84c-.85,3.94-5.03,5.89-8.67,4.29-1.24-.54-2.34,1.18-1.09,1.86,4.76,2.61,10.68-.4,11.86-5.58.27-1.2-1.32-1.89-1.98-.84-3.96,6.24-.61,14.09,6.77,15.26,1.09.17,2.03-1.41.83-1.97-5.88-2.74-12.92-.81-16.31,4.81-.6.99.71,1.83,1.51,1.17,5.38-4.44,3.24-13.35-4.06-13.65-.32-.01-.38.47-.07.55h0Z"/>
      <path class="cls-1" d="M35.64,129.04c6.53,1.42,7.81,9.81.78,11.62l.39,1.4c4.91-1.78,10.06-.9,14.02,2.55l1.18-1.18c-4.42-3.85-5.21-10.13-2.07-15.03.59-.92-.67-1.7-1.41-1.09-3.26,2.68-6.23.47-7.94-2.47-.35-.59-1.45-.38-1.38.37.56,5.43,6.9,6.3,10.59,3.37l-1.41-1.09c-3.69,5.47-2.55,12.87,2.45,17.12.81.69,1.99-.48,1.18-1.18-4.41-3.74-10.15-4.83-15.58-2.77-.86.32-.53,1.65.39,1.4,7.51-2.04,7.21-13.45-1.08-13.62-.34,0-.42.52-.08.6h0Z"/>
      <path class="cls-1" d="M194.06,128.43c5.88,1.73,4.71,10.35-1.77,9.04-1.14-.23-1.89,1.3-.82,1.94,2.08,1.23,10.18,7.79,3.34,9.57l1.2,1.56c2.85-4.81,8.19-7.15,13.66-5.9,1.34.3,1.83-1.57.56-2.04-6.44-2.37-9.48-7.72-10.25-14.25-.14-1.21-1.84-1.26-1.92,0-.5,7.38,4.98,13.84,11.61,16.28l.56-2.04c-6.4-1.46-12.7,1.21-16.05,6.87-.48.81.31,1.79,1.2,1.56,2.68-.7,4.14-3.07,3.9-5.82-.32-3.73-3.8-5.93-6.74-7.62l-.82,1.94c8.63,1.5,11.46-10.77,2.65-12.21-.73-.12-1.05.91-.31,1.13h0Z"/>
      <path class="cls-1" d="M147.13,32.48c7.55.72,12.74,4.85,17.52,10.38.35.41.9-.11.7-.54-3.18-6.83-11.03-10.64-18.22-11.27-.92-.08-.91,1.34,0,1.43h0Z"/>
      <path class="cls-1" d="M153.63,27.94c2.4,1.62,4.75,3.38,7.35,4.66.56.27,1.26-.47.71-.92-2.29-1.87-4.89-3.31-7.41-4.85-.72-.44-1.33.65-.65,1.11h0Z"/>
      <path class="cls-1" d="M89.23,35.78c-5.11-.78-10.35.69-13.8,4.67-.5.58.26,1.36.85.85,3.53-3.1,7.85-4.82,12.58-4.18.86.12,1.25-1.2.37-1.33h0Z"/>
      <path class="cls-1" d="M81.23,22.01c-5.85.34-11.74,2.81-15.29,7.62-.48.65.54,1.36,1.09.84,4.08-3.85,8.5-6.54,14.21-6.98.94-.07.96-1.53,0-1.48h0Z"/>
      <path class="cls-1" d="M144.59,179.01c-6.36.87-12.92,1.88-19.35,1.26s-11.06-2.79-16.23-5.97c-.76-.47-1.55.59-.94,1.21,9.3,9.52,25.21,6.89,36.85,4.74.83-.15.46-1.35-.34-1.24h0Z"/>
      <path class="cls-1" d="M142.25,187.25c-13.71,2.91-25.63.32-38.69-3.78-.62-.19-1.02.74-.44,1.05,11.65,6.26,26.74,6.29,39.35,3.5.5-.11.29-.87-.21-.77h0Z"/>
      <path class="cls-1" d="M36.86,92.18c-12-5.48-23.86-11.62-36.2-16.31-.56-.21-.93.69-.41.96,11.66,6.09,24.1,10.86,36.12,16.17.56.25,1.05-.57.49-.83h0Z"/>
      <path class="cls-1" d="M36.37,76.43c-6.43-6.8-12.47-14.06-19.36-20.4-.52-.48-1.2.23-.76.76,5.97,7.21,12.9,13.62,19.36,20.4.48.5,1.24-.26.76-.76h0Z"/>
      <path class="cls-1" d="M209.26,86.11c9.66-6.92,20.11-12.47,31.13-16.91.64-.26.39-1.3-.29-1.06-11.4,3.89-21.87,9.6-31.53,16.78-.7.52-.03,1.72.7,1.19h0Z"/>
      <path class="cls-1" d="M209.23,94.65c6.25,3.56,14.94,5.19,21.92,6.77.73.17.99-.85.31-1.11-6.71-2.48-14.87-5.85-22.06-6.28-.33-.02-.44.46-.17.61h0Z"/>
      <path class="cls-1" d="M81.75,56.01c-6.16,15.98-8.25,33.24-6.86,50.29,1.32,16.08,5.41,33.54,14.35,47.2.39.6,1.2.08.93-.54-6.76-15.8-12.39-31-13.7-48.32-1.24-16.41,1.05-32.76,5.91-48.44.13-.41-.48-.56-.63-.17h0Z"/>
      <path class="cls-1" d="M152.61,55.53c15.89,33.25,13.93,70.75-5.01,102.31-.49.81.73,1.49,1.25.73,20.58-29.45,22.3-72.32,4.42-103.43-.25-.44-.88-.05-.67.39h0Z"/>
    </g>
  </g>
</svg>