<?xml version="1.0" encoding="UTF-8"?>
<svg id="Layer_2" data-name="Layer 2" xmlns="http://www.w3.org/2000/svg" viewBox="0 0 256.37 147.56">
  <defs>
    <style>
      .cls-1 {
        fill: #4b032a;
        stroke-width: 0px;
      }
    </style>
  </defs>
  <g id="Layer_1-2" data-name="Layer 1">
    <g>
      <path class="cls-1" d="M200.25,30.15C177.03-.31,133.95-8.4,100.42,9.14c-15.9,8.31-28.9,21.69-35.42,38.51-7.1,18.31-5.17,38.66,3.32,56.14,8.38,17.25,23.15,31.44,40.91,38.72s37.88,6.45,55.53-1.06c17.77-7.56,32.45-21.72,39.11-40.01,6.32-17.35,4.91-37.18-2.78-53.84-8.61-18.67-26.63-32.54-46.79-36.28-20.24-3.76-44.18,1.15-57.68,17.67-2.83,3.47,1.45,7.81,4.92,4.92,12.94-10.77,28.69-16.95,45.65-16.07,17.17.89,33.28,9.06,42.62,23.7,8.81,13.81,12.36,31.06,9.18,47.18-3.34,16.95-13.99,31.16-28.82,39.89-30.4,17.9-68.76,8.75-88.52-20.26-9.5-13.96-14.32-31.49-11.9-48.34,2.28-15.84,11.17-29.86,23.48-39.87C108.67,7.58,128.15,1.46,147.96,3.64c19.82,2.19,38.49,11.93,51.06,27.46.56.69,1.78-.24,1.24-.95h0Z"/>
      <g>
        <path class="cls-1" d="M28.61,42.47c-2.52-4.49-3.91-9.73-5.32-14.66-.09-.3-.41-.6-.74-.56-2.63.26-5.23.75-7.81,1.31-.4.09-.62.48-.65.86-.42,4.96-.84,9.92-1.26,14.87l2.21-.3c-1.64-4.65-3.23-10.34-2.96-15.26.04-.7-.66-1.45-1.38-1.38-1.79.17-3.59.24-5.32-.33-.64-.21-1.31.15-1.66.67-5.27,7.88-4.93,18.73.98,26.21s17.05,9.56,25.81,5.79c8.92-3.84,13.69-13.23,12.53-22.76-.48-3.9-2.15-9.9-5.55-12.38-2.95-2.14-6.55-.1-9.55.99-2.57.93-1.55,4.96,1.15,4.16,1.83-.54,4.5-1.87,5.88-.83,2.67,1.99,3.61,7.69,3.69,10.72.18,7.72-4.29,14.57-11.7,16.96C10.42,61.89-2.74,43.56,6.25,29.18l-1.66.67c1.99.59,4.06.51,6.1.25l-1.38-1.38c-.12,5.16,1.67,11.04,3.54,15.86.45,1.16,2.14,1.03,2.21-.3.14-2.64.28-5.28.42-7.92l.25-4.8c.03-.51-.06-1.16.09-1.65.32-1.09-.99.64-.11.22.72-.34,6.02-1.89,6.12-1.83.58.34,1.06,3.17,1.3,3.84,1.28,3.67,2.57,7.49,4.58,10.83.34.57,1.22.06.89-.52h0Z"/>
        <path class="cls-1" d="M20.36,60.32c-4.24,22.82-2.1,47.62,6.43,69.29,1.14,2.89,5.11,2.45,5.39-.73,1.12-12.48,1.48-24.98.64-37.49-.73-10.93-2.02-23.57-6.58-33.63-.24-.53-1.05-.24-1.05.28-.02,5.64,1.14,11.43,1.64,17.06.54,6.05.94,12.14,1.22,18.21.54,11.87.13,23.78-1.36,35.57l5.39-.73c-7.58-21.58-10.99-44.76-10.25-67.63.03-.83-1.32-1.04-1.47-.2h0Z"/>
        <path class="cls-1" d="M29.5,42.92c-.24-2.89-.44-5.79-.76-8.68-.28-2.52-.31-5.25-1.24-7.61-.21-.53-1.14-.71-1.27,0-.88,5.08.69,11.21,1.3,16.29.15,1.23,2.08,1.28,1.97,0h0Z"/>
      </g>
      <path class="cls-1" d="M244.8,88.36c-.56,8.21-1.07,16.41-1.46,24.62-.24,5.21-1.88,12.35.23,17.33,1.65,3.89,6,4.87,9.35,2.39,4.34-3.22,3.46-9.35,3.19-14.02-1.98-33.55-5.12-67.02-7.43-100.55-.05-.78-.69-1.69-1.58-1.58-1.38.16-3.86-.05-5.1.71-2.43,1.49-3.72,7.19-4.76,9.86-3.69,9.52-5.78,19.65-6.24,29.85-.23,5-.06,10.02.55,14.99.4,3.25.9,6.97,3.36,9.4,4.15,4.11,11.06,3.02,13.83-1.96.9-1.61-1.24-3.34-2.58-1.99-2.46,2.49-6.6,2.52-8.42-.58-1.63-2.75-1.58-7.07-1.87-10.15-.58-6.15-.51-12.39.19-18.52.75-6.55,2.22-13.01,4.35-19.25.48-1.39.99-2.77,1.54-4.14.44-1.1,1.01-4.16,1.56-4.53.84-.57,2.99-.43,4.02-.58l-2.01-1.53c1.79,25.54,3.44,51.09,4.76,76.65.33,6.31.9,12.61,1.4,18.91.23,2.91.52,5.81.69,8.72.06.93.53,3.99-.17,4.74l-5.7.56c-.17-.91-.24-1.83-.22-2.75-.33-12.16.56-24.45.62-36.63,0-1.36-2.01-1.34-2.1,0h0Z"/>
      <path class="cls-1" d="M90.85,82.85c-1.86,22.22,17.33,43.39,40.26,40.57,1.37-.17,1.46-2.15,0-2.2-21.73-.82-38.79-15.92-38.85-38.37,0-.92-1.33-.89-1.41,0h0Z"/>
      <path class="cls-1" d="M131.63,34.91c23.55-8.58,46.74,4.81,54.37,27.82.26.78,1.37.46,1.22-.34-4.79-25.29-32.91-38.34-56.11-29.38-1.16.45-.68,2.34.52,1.9h0Z"/>
    </g>
  </g>
</svg>