<?xml version="1.0" encoding="UTF-8"?>
<svg id="Layer_2" data-name="Layer 2" xmlns="http://www.w3.org/2000/svg" viewBox="0 0 235.24 230.72">
  <defs>
    <style>
      .cls-1 {
        fill: #4b032a;
        stroke-width: 0px;
      }
    </style>
  </defs>
  <g id="Layer_1-2" data-name="Layer 1">
    <g>
      <g>
        <path class="cls-1" d="M38.7,54.32c25.87,18.65,56.47,28.97,83.31,46l-.88-6.83c-12.69,11.49-25.46,22.9-38.05,34.5-5.78,5.33-11.46,11.88-18.31,15.85-3.2,1.85-7.51,3.62-10.65.65-2.24-2.12-2.86-5.65-3.27-8.55-2-14.05-2.38-28.53-3.66-42.67-.68-7.44-1.35-14.88-1.99-22.33-.53-6.16.12-14.36-3.67-19.51-.85-1.16-2.69-1.44-3.48,0-3.66,6.61-1.17,16.49-.62,23.73.66,8.64,1.35,17.27,2.03,25.91s1.3,16.71,1.85,25.07c.46,7.02.22,14.88,3.83,21.19,3.59,6.26,10.54,8.99,17.49,7.25,7.85-1.97,13.92-8.13,19.69-13.39,15.08-13.74,30-27.67,44.95-41.55,2.11-1.95,1.42-5.41-.88-6.83-27.12-16.75-57.54-27.15-85.52-42.21-2.49-1.34-4.4,2.12-2.18,3.72h0Z"/>
        <path class="cls-1" d="M22.36,209.64c4.03-4.34,6.73-9.95,9.71-15.03s6.31-10.63,9.34-16.01,6.04-10.78,9.06-16.17c2.58-4.6,6.47-9.61,6.73-15.02.05-1.09-1.33-1.93-2.26-1.3-4.48,3.07-6.65,8.91-9.23,13.54-3,5.4-6.02,10.8-9.01,16.2-3,5.41-5.84,10.9-8.73,16.37s-6.16,10.49-7.74,16.19c-.33,1.19,1.24,2.17,2.12,1.23h0Z"/>
        <g>
          <path class="cls-1" d="M9.04,199.69c13.35,5.19,25.19,14.2,33.76,25.68-12.47-2.19-24.39-7.43-34.44-15.12-2.06-1.58-4.16-3.45-4.68-5.99s1.55-5.65,4.09-5.16"/>
          <path class="cls-1" d="M8.05,201.39c12.33,6.48,23.17,14.68,31.68,25.77l4.02-5.23c-9.36-1.72-18.36-4.87-26.51-9.83-3.02-1.83-11.43-6.07-9.67-10.45.69-1.73,2.4-1.67,1.29-3.82-.38-.73-1.32-1.29-2.15-1.23-3.53.25-6.52,2.82-6.71,6.53-.26,5.05,4.31,8.56,7.95,11.18,10.08,7.26,21.71,12.16,33.89,14.48,2.66.51,6.08-2.51,4.02-5.23-9.16-12.08-21.67-21.59-36.31-25.78-2.11-.6-3.52,2.55-1.52,3.6h0Z"/>
        </g>
        <path class="cls-1" d="M47.19,120.5c3.46-3.97,8.77-6.68,14.07-7.03s9.13,1.93,13.97,3.32c3.54,1.01,6.93.84,9.94-1.41,2.1-1.58,3.5-4,6.23-4.61s5.48.7,7.27,2.79c2.26,2.64,6.25-1.27,3.84-3.84-3.16-3.38-7.89-4.93-12.44-3.73-2.35.62-4.14,1.92-5.87,3.58-3.91,3.77-6.84,3.05-11.43,1.38-10.39-3.79-20.95-1.19-26.85,8.59-.46.76.65,1.66,1.25.97h0Z"/>
      </g>
      <path class="cls-1" d="M222.19,55.44c-30.15,9.85-61.87,14.68-91.48,26.34-2.31.91-4.46,3.92-2.6,6.39,12.26,16.31,24.46,32.65,36.87,48.84,4.79,6.25,9.54,13.3,16.88,16.8,6.51,3.1,13.79,1.81,18.59-3.61s5.99-13.24,7.68-20.04c2.02-8.13,4.14-16.25,6.26-24.36,2.2-8.38,4.41-16.76,6.59-25.15,1.82-7,6.13-16.55,3.72-23.67-.49-1.45-2.22-1.97-3.37-.89-4.55,4.28-5.3,11.67-6.87,17.5-1.94,7.2-3.92,14.39-5.9,21.58-3.85,13.96-7.05,28.23-11.34,42.06-2.24,7.2-6.95,12.17-14.19,6.65-6.3-4.8-10.74-12.36-15.46-18.6-10.53-13.92-21.28-27.68-31.94-41.51-.87,2.13-1.73,4.26-2.6,6.39,29.66-12.1,61.82-16.9,90.82-30.79,2.2-1.05.65-4.7-1.66-3.94h0Z"/>
      <path class="cls-1" d="M214.37,214.58c-.55-5.9-2.9-11.63-4.69-17.24s-3.7-11.78-5.69-17.63-4-11.69-6-17.54c-1.7-4.96-2.83-11.31-6.67-15.09-1.01-1-2.41-.17-2.56,1.06-.69,5.42,2.49,11.37,4.24,16.42,2.02,5.84,4.01,11.69,6.05,17.52,1.94,5.53,4.02,11.02,6.05,16.52,2.03,5.52,3.71,11.64,6.9,16.62.62.97,2.48.69,2.36-.64h0Z"/>
      <g>
        <path class="cls-1" d="M226.94,207.87c-14.06,2.74-27.31,9.51-37.78,19.29,12.66.05,25.32-2.99,36.58-8.78,2.31-1.19,4.71-2.66,5.66-5.07s-.52-5.83-3.11-5.8"/>
        <path class="cls-1" d="M226.94,205.9c-15.1,1.54-29.12,8.5-40.29,18.74-2.29,2.1-.49,6.11,2.52,6.07,12.75-.13,25.22-2.99,36.74-8.49,3.84-1.83,8.45-4.41,9.24-9.05.62-3.61-1.65-7.01-5.15-7.89-.78-.2-1.88-.04-2.42.64-1.27,1.62-.42,1.84,0,3.51,1.23,4.86-4.74,6.6-8.5,8.23-9.43,4.08-19.67,5.88-29.91,5.93l2.52,6.07c10.39-9.47,22.41-15.68,35.78-19.91,2.01-.63,1.79-4.1-.52-3.87h0Z"/>
      </g>
      <path class="cls-1" d="M204.85,122.5c-3.83-9.98-13.25-15.23-23.78-13.48-4.62.77-8.53,1.87-11.65-2.44-1.32-1.82-2.58-3.59-4.58-4.75-4.34-2.53-9.79-2.13-13.78.81-3.14,2.31.21,6.76,3.29,4.27,2.56-2.07,6.18-2.18,8.77-.18,1.74,1.34,2.56,3.47,4.1,5,2.7,2.69,6.14,3.19,9.8,2.74,4.59-.57,8.69-1.88,13.34-.8,5.34,1.23,10.21,4.77,13.02,9.45.45.74,1.79.26,1.46-.61h0Z"/>
      <path class="cls-1" d="M129.95,41.9c-.64-5.23-1.26-10.46-1.91-15.69-.53-4.27-.97-8.78-3.1-12.57-.65-1.16-2.61-.96-2.91.38-.96,4.24-.11,8.67.59,12.92.85,5.2,1.76,10.39,2.64,15.59.44,2.63,5.02,2.05,4.7-.64h0Z"/>
      <path class="cls-1" d="M142.84,42.82c6.37-9.34,12.29-18.85,17.6-28.83,1.4-2.62-2.35-4.79-3.97-2.32-6.19,9.47-11.68,19.23-16.8,29.31-1.07,2.11,1.83,3.79,3.16,1.85h0Z"/>
      <path class="cls-1" d="M112.13,46.13c-10.42-15.34-20.42-31.15-32.09-45.58-1.22-1.51-3.6.43-2.65,2.04,9.33,15.85,20.56,30.62,31.18,45.62,1.51,2.14,5.07.13,3.56-2.08h0Z"/>
    </g>
  </g>
</svg>