<?xml version="1.0" encoding="UTF-8"?>
<svg id="Layer_2" data-name="Layer 2" xmlns="http://www.w3.org/2000/svg" viewBox="0 0 185.12 189.69">
  <defs>
    <style>
      .cls-1 {
        fill: #4b032a;
        stroke-width: 0px;
      }
    </style>
  </defs>
  <g id="Layer_1-2" data-name="Layer 1">
    <g>
      <path class="cls-1" d="M59.14,92.11c19.79-3.24,39.22,12.03,43.7,30.94s-5.12,39.74-22.93,49c-15.96,8.29-41.73,12.52-57.27,1.25s-16.16-35.39-7.45-51.2c5.39-9.79,13.78-17.16,23.52-22.45,4.85-2.63,9.86-4.51,15.15-6.01,1.18-.33,2.34-.7,3.55-.93.4-.08,2.09,0,1.1-.12,3.51.43,3.48-5.08,0-5.51.98.12-1.01-.2-1.39-.24-1.39-.14-2.8-.2-4.19-.11-5.88.38-11.8,2.76-17.13,5.1-10.51,4.62-19.64,12.44-26.17,21.85-12.84,18.49-13.71,46.58,2.69,63.38,16.98,17.4,46.12,14.36,66.61,5.61,11.03-4.72,20.61-12.35,25.96-23.26,4.98-10.16,6.46-21.74,4.96-32.91-3.39-25.28-26.26-44.24-51.95-38.93-3.01.62-1.69,5.04,1.26,4.56Z"/>
      <path class="cls-1" d="M133.86,83.93c19.79-3.24,39.22,12.03,43.7,30.94s-5.12,39.74-22.93,49c-15.96,8.29-41.73,12.52-57.27,1.25-15.79-11.46-16.16-35.39-7.45-51.2,5.39-9.79,13.78-17.16,23.52-22.45,4.85-2.63,9.86-4.51,15.15-6.01,1.18-.33,2.34-.7,3.55-.93.4-.08,2.09,0,1.1-.12,3.51.43,3.48-5.08,0-5.51.98.12-1.01-.2-1.39-.24-1.39-.14-2.8-.2-4.19-.11-5.88.38-11.8,2.76-17.13,5.1-10.51,4.62-19.64,12.44-26.17,21.85-12.84,18.49-13.71,46.58,2.69,63.38,16.98,17.4,46.12,14.36,66.61,5.61,11.03-4.72,20.61-12.35,25.96-23.26,4.98-10.16,6.46-21.74,4.96-32.91-3.39-25.28-26.26-44.24-51.95-38.93-3.01.62-1.69,5.04,1.26,4.56Z"/>
      <path class="cls-1" d="M77.68,32.98c-1.57-10.53-6.78-20.35-14.96-27.26-5.51-4.65-17.08-9.9-21.1-.49-4.43,10.37,8.89,20.36,14.88,26.78,9.92,10.63,19.94,21.19,29.72,31.96,2.57,2.83,8.34.75,7.95-3.29-.92-9.42-1.42-18.74-.57-28.19.7-7.76,4.38-17.63.72-25.14-2.48-5.09-8.57-8.98-14.11-5.98-4.62,2.5-6.43,8.66-5.66,13.54.17,1.07,1.97,1.33,2.4.31,1.65-3.87,4.4-13.18,10.13-7.85,4.97,4.63.96,13.91-.12,19.49-2.14,11.05-3.11,22.59-2.09,33.82l7.95-3.29c-14.4-13.17-29.07-26.35-42.83-40.19-1.76-1.77-3.57-3.69-4.29-6.15-1.32-4.52,1.72-7.85,6.37-7.11,4.26.68,8.07,3.97,11.03,6.88,6.34,6.23,10.24,14.24,11.7,22.96.32,1.91,3.17,1.08,2.89-.8h0Z"/>
    </g>
  </g>
</svg>